<?xml version="1.0" encoding="UTF-8" standalone="no"?>
<!-- Created with Inkscape (http://www.inkscape.org/) -->

<svg
   version="1.1"
   id="svg9"
   width="45"
   height="45"
   viewBox="0 0 45 45"
   sodipodi:docname="booksysvg.svg"
   inkscape:version="1.2.1 (9c6d41e410, 2022-07-14)"
   inkscape:export-filename="booksysvg.svg"
   inkscape:export-xdpi="96"
   inkscape:export-ydpi="96"
   xmlns:inkscape="http://www.inkscape.org/namespaces/inkscape"
   xmlns:sodipodi="http://sodipodi.sourceforge.net/DTD/sodipodi-0.dtd"
   xmlns="http://www.w3.org/2000/svg"
   xmlns:svg="http://www.w3.org/2000/svg">
  <defs
     id="defs13" />
  <sodipodi:namedview
     id="namedview11"
     pagecolor="#ffffff"
     bordercolor="#000000"
     borderopacity="0.25"
     inkscape:showpageshadow="2"
     inkscape:pageopacity="0.0"
     inkscape:pagecheckerboard="0"
     inkscape:deskcolor="#d1d1d1"
     showgrid="false"
     showguides="false"
     inkscape:zoom="22.627417"
     inkscape:cx="17.942835"
     inkscape:cy="26.074563"
     inkscape:window-width="2560"
     inkscape:window-height="1417"
     inkscape:window-x="-8"
     inkscape:window-y="-8"
     inkscape:window-maximized="1"
     inkscape:current-layer="g15"
     inkscape:lockguides="true" />
  <g
     inkscape:groupmode="layer"
     inkscape:label="Image"
     id="g15">
    <path
       style="fill:#000000"
       id="path234"
       d="M 0.63128397,6.3799614 C 2.3041246,7.8245238 4.1176883,9.093486 5.8409258,10.474821 c 0.3697855,0.296417 0.7289567,0.605839 1.093435,0.908758 1.4949823,1.324607 2.8746672,2.770691 4.3430312,4.123909 0.749445,0.690677 1.075821,0.964259 1.824012,1.61253 0.724229,0.596449 1.446527,1.226579 2.28701,1.658807 0.223234,0.1148 0.316599,0.13947 0.535718,0.214143 0,0 -0.0029,-0.0023 -0.0029,-0.0023 v 0 c -0.219634,-0.07487 -0.311606,-0.09907 -0.535616,-0.21415 -0.838554,-0.430781 -1.558215,-1.06098 -2.281018,-1.655237 C 12.356356,16.473038 12.029924,16.199423 11.28046,15.508749 9.8120777,14.155551 8.4324066,12.709456 6.9374471,11.384824 6.5729614,11.081898 6.213784,10.772468 5.8439901,10.476045 4.1208465,9.0947901 2.3073678,7.8259133 0.63468927,6.3813476 c 0,0 -0.003405,-0.00139 -0.003405,-0.00139 z" />
    <path
       style="fill:#000000"
       id="path236"
       d="m 9.7164022,9.6020346 c 0.9826948,0.9028754 1.6032888,2.1081994 2.2920428,3.2299794 0.37077,0.603876 0.731916,1.21409 1.122771,1.805164 0.443865,0.671241 0.920358,1.320328 1.380537,1.980492 1.442481,1.886893 3.064494,3.654919 5.022006,5.021787 1.0167,0.709929 2.060384,1.27818 3.27254,1.569937 0.488092,0.117481 0.997579,0.113919 1.496369,0.170879 0.459906,-0.07592 0.936431,-0.08362 1.379719,-0.227749 0.449399,-0.146114 0.881464,-0.361934 1.268382,-0.633233 1.2828,-0.899475 2.336975,-2.524851 2.822993,-3.994232 0.177063,-0.535316 0.234834,-1.102956 0.352252,-1.654434 -3.1e-4,-0.528259 -6.2e-4,-1.056519 -9.3e-4,-1.584779 0,0 -0.0029,-0.0015 -0.0029,-0.0015 v 0 c 3.3e-4,0.528245 6.61e-4,1.056489 9.91e-4,1.584734 -0.117403,0.551459 -0.175157,1.11908 -0.35221,1.654377 -0.485998,1.469352 -1.540153,3.094589 -2.822958,3.993991 -0.386906,0.271267 -0.818954,0.487057 -1.268331,0.633147 -0.443265,0.144103 -0.919758,0.151796 -1.379637,0.227694 -0.498759,-0.05697 -1.00815,-0.05369 -1.496276,-0.170902 -1.212006,-0.291031 -2.250402,-0.856889 -3.26713,-1.566798 -1.957557,-1.366823 -3.579615,-3.134823 -5.022099,-5.02173 -0.460153,-0.660147 -0.936627,-1.309212 -1.380459,-1.98044 -0.390815,-0.591048 -0.751913,-1.20124 -1.122628,-1.805098 -0.688644,-1.121729 -1.309084,-2.326998 -2.2915933,-3.2299197 0,0 -0.00343,-0.00138 -0.00343,-0.00138 z" />
    <path
       style="fill:#000000"
       id="path238"
       d="m 24.781641,13.96515 c -0.619747,1.078106 -0.908369,1.639654 -1.706637,2.705627 -0.48902,0.653016 -0.99408,1.296534 -1.545576,1.897719 -1.228144,1.338796 -2.590315,2.561144 -4.100725,3.576186 -0.672329,0.451827 -1.407397,0.802452 -2.111096,1.203679 -1.607396,0.44767 -1.955577,0.834207 -3.521871,0.301667 -0.420655,-0.143023 -0.764241,-0.453388 -1.146361,-0.680082 0,0 -0.0031,-0.0012 -0.0031,-0.0012 v 0 c 0.384037,0.227752 0.729434,0.539384 1.152112,0.683255 1.564961,0.532683 1.91616,0.145304 3.521773,-0.301994 0.703681,-0.401254 1.438726,-0.751919 2.111044,-1.203761 1.510373,-1.01507 2.872633,-2.237474 4.10083,-3.576201 0.551538,-0.601172 1.056654,-1.244666 1.545739,-1.897656 0.798155,-1.06564 1.087195,-1.627644 1.707017,-2.705457 0,0 -0.0031,-0.0018 -0.0031,-0.0018 z" />
    <path
       style="fill:#000000"
       id="path240"
       d="m 23.397169,12.455074 c 0.0738,0.268916 0.179772,0.531014 0.221409,0.806748 0.0738,0.488758 0.136724,0.983617 0.123557,1.477741 -0.06702,2.515188 -0.821783,4.879763 -2.096107,7.043709 -0.403119,0.684541 -0.928819,1.289068 -1.393229,1.933602 -1.829417,1.554631 -0.876558,0.976036 -2.7916,1.841571 0,0 0.0028,0.0018 0.0028,0.0018 v 0 c 1.914948,-0.865758 0.96214,-0.287061 2.791441,-1.841865 0.464393,-0.644564 0.990063,-1.249132 1.393179,-1.933691 1.27428,-2.163941 2.029194,-4.528525 2.096514,-7.043681 0.01323,-0.494105 -0.04962,-0.988954 -0.123345,-1.477707 -0.04159,-0.275723 -0.147485,-0.537828 -0.221228,-0.806742 0,0 -0.0034,-0.0015 -0.0034,-0.0015 z" />
    <path
       style="fill:#000000"
       id="path242"
       d="m 19.192633,20.022421 c -0.128875,0.31885 -0.228595,0.6511 -0.386627,0.956551 -0.272763,0.527211 -0.556255,1.052991 -0.902499,1.535138 -1.049513,1.46145 -2.213774,2.649292 -3.603148,3.797739 -0.689693,0.570096 -1.407518,1.111764 -2.169172,1.581411 -0.649823,0.400691 -1.366929,0.680293 -2.050394,1.020439 0,0 0.0025,0.0017 0.0025,0.0017 v 0 c 0.683438,-0.340183 1.400512,-0.619838 2.050315,-1.020549 0.761643,-0.469678 1.479462,-1.011362 2.169165,-1.581457 1.389389,-1.148441 2.553793,-2.336303 3.603466,-3.797652 0.346305,-0.482124 0.629874,-1.007881 0.90273,-1.535062 0.158086,-0.305435 0.257893,-0.637665 0.386839,-0.956498 0,0 -0.0032,-0.0017 -0.0032,-0.0017 z" />
    <path
       style="fill:#000000"
       id="path244"
       d="m 16.232686,22.192531 c -0.197824,1.755502 -0.649605,3.475662 -1.167946,5.161251 -0.0911,0.301322 -0.2081,0.587608 -0.375529,0.853071 0,0 0.0032,0.0019 0.0032,0.0019 v 0 c 0.167387,-0.26553 0.284375,-0.551862 0.375438,-0.853233 0.51818,-1.685663 0.969922,-3.405811 1.168114,-5.161285 0,0 -0.0033,-0.0017 -0.0033,-0.0017 z" />
    <path
       style="fill:#000000"
       id="path246"
       d="m 14.459597,28.142948 c -0.429976,1.992121 -1.078755,3.926966 -1.762347,5.843861 0,0 0.003,0.0017 0.003,0.0017 v 0 c 0.683497,-1.916929 1.332237,-3.851764 1.762569,-5.843799 0,0 -0.0033,-0.0017 -0.0033,-0.0017 z" />
    <path
       style="fill:#000000;fill-opacity:1;stroke-width:0.742;stroke-dasharray:none"
       d="m 22.709832,2.482328 -0.06652,24.976668 3.814246,-0.11328 0.06652,-3.709688 c 0,0 0.643099,-4.927368 5.499612,-5.663642 0.956084,-0.144944 2.810761,-0.366123 5.072696,1.304651 1.966617,1.452636 3.583953,3.318568 3.891076,5.025478 0.130157,0.72343 0.292418,2.703542 0.125401,4.463047 -0.144211,1.519142 -0.60173,2.848344 -0.728869,3.365932 -0.108105,0.44011 -0.439864,1.512857 -0.951676,2.327528 -0.646863,1.029638 -1.487668,1.778615 -1.487668,1.778615 l -1.108793,0.906184 -1.374902,0.792909 -1.552311,0.226545 -0.399166,0.08494 c 0,0 -0.487867,-0.02831 -0.576572,-0.02831 -0.0887,0 -2.217585,-0.141595 -2.217585,-0.141595 L 29.281897,37.515705 28.298154,36.945589 27.24201,36.426299 25.481822,35.303132 23.796457,34.311995 23.109006,33.632358 21.978037,32.669537 20.62531,31.112035 19.206054,29.837715 17.942031,28.818261 16.61148,27.85544 15.192227,26.751031 13.595565,25.78821 l -0.643099,-0.198225 -0.665275,-0.16991 -0.487869,-0.05663 h -0.576583 l -0.487868,-0.02831 -0.443518,0.05663 -1.8214786,-0.03815 -1.4583029,0.280337 -1.3485409,0.580695 -0.8937988,0.600721 -0.8938005,0.580695 -0.8153963,0.841009 -0.705631,0.921103 -0.5488245,0.981178 -0.721312,1.361631 -0.40769781,1.141369 -0.28225246,0.981176 -0.20384913,1.041248 0.0940849,0.580695 1.2074134,0.0801 1.12901,0.04004 1.5837507,-0.06006 0.8624387,-0.02 0.7056608,-1.986328 c 0,0 0.3735337,-0.815804 1.1807476,-1.57987 0.7564609,-0.716026 1.5795941,-0.843659 1.5795941,-0.843659 0,0 0.8032988,-0.383836 1.6186947,-0.283719 0.454164,0.05577 0.605906,-0.02341 1.405342,0.228333 0.895498,0.282002 0.920445,0.355863 1.522794,0.860923 1.369299,1.148136 3.936721,2.829753 4.65067,3.719018 l 2.807767,2.629769 2.08269,1.804061 1.574486,1.175207 0.753978,0.453092 0.586315,0.349119 0.614428,0.32323 0.630339,0.278323 0.686665,0.302495 0.873255,0.177194 1.188311,0.09881 0.934864,0.02387 1.460915,0.06493 c 0,0 1.66075,0.04747 1.740018,0.06694 0.156012,0.03833 0.931384,-0.05664 0.931384,-0.05664 0,0 0.80942,-0.09911 1.419254,-0.353978 0.609836,-0.254864 0.930677,-0.04225 2.467384,-1.3238 1.536708,-1.281537 2.446188,-1.742089 3.151819,-2.923505 0.705633,-1.181414 1.398306,-2.081334 1.991448,-3.664392 0.272186,-0.726446 0.487318,-1.081578 0.664402,-1.93748 0.125671,-0.607412 0.1956,-1.393173 0.253151,-2.339361 0.125437,-2.062475 -0.0081,-4.753984 -0.0081,-4.753984 0,0 0.04705,-1.982377 -0.486102,-3.54425 -0.533143,-1.561871 -1.630792,-3.524224 -1.630792,-3.524224 0,0 -1.403171,-1.909636 -2.438099,-2.810716 -1.034924,-0.901079 -3.285019,-1.759685 -3.285019,-1.759685 0,0 -0.972538,-0.573112 -2.681734,-0.643196 -1.678141,-0.06882 -2.163937,0.0074 -2.163937,0.0074 0,0 -1.191732,0.260312 -1.254454,0.320384 -0.06271,0.06006 -0.995725,0.430516 -0.995725,0.430516 l -0.635068,0.330396 -0.869558,0.558453 -0.444766,0.363866 -0.285894,0.358212 c 0,0 -0.808482,0.842167 -0.817883,0.281456 -0.0087,-0.520889 0.04403,-3.239975 0.04403,-3.239975 l 0.03765,-2.767303 0.06216,-3.7445327 0.02663,-2.5490833 -0.0423,-1.5384679 -1.975198,0.062732 z"
       id="path308"
       sodipodi:nodetypes="ccccsssssscccccsccccccccccccccccccccccccccccccccccccccscssscccccccccccccscsssssscscscscscccccsccccccc" />
  </g>
</svg>
